# xmcd
#
# Track frame offsets: 
#        150
#        13426
#        27633
#        43635
#        61719
#        75548
#        91691
#        106296
#        123502
#        135872
#        150321
#        164589
#        180718
#        202387
#        215596
#        238936
#        252176
#        264545
#        275500
#        292396
#
# Disc length: 4099 seconds
#
# Revision: 2
# Processed by: cddbd v1.5.2PL0 Copyright (c) Steve Scherf et al.
# Submitted via: ExactAudioCopyFreeDBPlugin 1.0
#
DISCID=29100114
DTITLE=Various Artist - Schlager Kilometer 330 - Stars und Countryhit
DTITLE=s
DYEAR=2003
DGENRE=Country/Schlager
TTITLE0=Truck Stop - Unsere Herzen (Schlagen Für Den Wilden Westen)
TTITLE1=Jonny Hill - Wer Wie Ich Viel Unterwegs...
TTITLE2=Linda Feller - Engel Lieben Meist die Falschen
TTITLE3=Drafi Deutscher - Marmor, Stein und Eisen Bricht...
TTITLE4=Nashville Music Company - Kaum zu Glauben, Aber Wahr
TTITLE5=Tom Astor - Junger Adler (ein Lied Für (M) Einen Sohn) (Remix 
TTITLE5='93)
TTITLE6=Rosi Funck - Unsere Liebe ist Viel Stärker
TTITLE7=Karat - Über Sieben Brücken Mußt Du Geh'n
TTITLE8=Jonny Hill - Ich Bin Für die Liebe
TTITLE9=Veronika Fischer - Viel zu Nah (Killing Me Softly With His Son
TTITLE9=g)
TTITLE10=Gunter Gabriel - Hey Boss, Ich Brauch Mehr Geld...
TTITLE11=Jürgen Drews - Ein Bett im Kornfeld (Let Your Love Flow)
TTITLE12=Jonny Hill - Ruf Teddybär Eins Vier
TTITLE13=Hanna and Daana - Ist Es Wirklich Wahr
TTITLE14=Liebe a. D. - Stefan Waggershausen
TTITLE15=Truck Stop - Tief im Herzen (Immer Cowboy)
TTITLE16=Gudrun - Kaktus Lange - Ich Weiß, Was Du Meinst
TTITLE17=Freddy Quinn - Kann Liebe Alles Verzeih'n (Some Broken Hearts
TTITLE17=)
TTITLE18=Larry - Western Union Schuba - Danke
TTITLE19=Jonny Hill - Dieser Weg Führt Nach Haus (Take Me Home, Countr
TTITLE19=y Roads)
EXTD=
EXTT0=
EXTT1=
EXTT2=
EXTT3=
EXTT4=
EXTT5=
EXTT6=
EXTT7=
EXTT8=
EXTT9=
EXTT10=
EXTT11=
EXTT12=
EXTT13=
EXTT14=
EXTT15=
EXTT16=
EXTT17=
EXTT18=
EXTT19=
PLAYORDER=
